<svg xmlns="http://www.w3.org/2000/svg" xmlns:xlink="http://www.w3.org/1999/xlink" version="1.1" id="Layer_1" x="0px" y="0px" width="52.68px" height="100px" viewBox="0 0 52.68 100" enable-background="new 0 0 52.68 100" xml:space="preserve">
<path d="M45.35,63.874v5.488c0,9.368-6.843,17.129-15.788,18.672v5.514h4.844V100H18.27v-6.452h4.84v-5.514  C14.171,86.491,7.332,78.73,7.332,69.362v-5.488c0-1.784,1.445-3.229,3.226-3.229c1.784,0,3.229,1.445,3.229,3.229v5.488  c0,6.92,5.628,12.545,12.549,12.545c6.924,0,12.562-5.625,12.562-12.545v-5.488c0-1.784,1.445-3.229,3.229-3.229  C43.904,60.645,45.35,62.09,45.35,63.874z"/>
<path d="M26.336,35.899c-5.339,0-9.675,4.323-9.675,9.688v22.201c0,5.338,4.336,9.681,9.675,9.681c5.348,0,9.684-4.343,9.684-9.681  V45.586C36.02,40.222,31.684,35.899,26.336,35.899z"/>
<path d="M38.272,30c0-0.312-0.065-0.605-0.176-0.892c-1.973-4.759-6.569-7.852-11.699-7.884h-0.202  c-5.137-0.039-9.756,2.975-11.807,7.708c-0.495,1.166,0.036,2.507,1.188,3.008c1.172,0.488,2.523-0.039,3.021-1.191  c1.302-3.034,4.293-4.967,7.575-4.948h0.202c3.277,0.026,6.233,2.025,7.503,5.052c0.462,1.165,1.816,1.725,2.976,1.23  C37.738,31.726,38.253,30.886,38.272,30z"/>
<path d="M43.461,23.217c0.684-0.437,1.074-1.172,1.074-1.934c0-0.41-0.117-0.846-0.357-1.217c-3.822-6.159-10.443-9.89-17.705-9.929  h-0.179c-7.269-0.065-13.938,3.562-17.858,9.662c-0.68,1.061-0.387,2.48,0.674,3.157c1.064,0.69,2.477,0.391,3.174-0.677  c3.079-4.779,8.291-7.598,13.971-7.565h0.186c5.68,0.045,10.863,2.949,13.857,7.76C40.968,23.562,42.387,23.881,43.461,23.217z"/>
<path d="M52.348,14.799C46.873,5.613,37.23,0.072,26.557,0.001h-0.202C15.685-0.077,5.958,5.32,0.34,14.434  c-0.661,1.074-0.332,2.48,0.755,3.158c1.077,0.658,2.493,0.312,3.154-0.755C8.999,9.096,17.27,4.506,26.339,4.571h0.186  c9.053,0.084,17.256,4.785,21.892,12.584c0.65,1.081,2.057,1.452,3.145,0.794c0.716-0.436,1.119-1.185,1.119-1.959  C52.68,15.586,52.582,15.189,52.348,14.799z"/>
</svg>